<?xml version="1.0" encoding="UTF-8"?><svg id="Calque_2" xmlns="http://www.w3.org/2000/svg" viewBox="0 0 87.9 117.55"><g id="Calque_1-2"><path d="M87.9,4.05v12c0,1.1-.38,2.05-1.15,2.85-.8.77-1.75,1.15-2.85,1.15v72.65l.1,2.95v1.85c1.07.03,1.98.43,2.75,1.2s1.15,1.7,1.15,2.8v12.05c0,1.1-.38,2.05-1.15,2.85-.8.77-1.75,1.15-2.85,1.15h-50.6c-1.1,0-2.03-.38-2.8-1.15-.8-.8-1.2-1.75-1.2-2.85v-12.05c0-1.1.4-2.03,1.2-2.8.77-.8,1.7-1.2,2.8-1.2-.47-6.03-3.05-10.02-7.75-11.95-1.63-.63-3.48-1.07-5.55-1.3-.03,1.03-.42,1.93-1.15,2.7-.8.77-1.75,1.15-2.85,1.15H4c-1.1,0-2.03-.38-2.8-1.15-.8-.8-1.2-1.75-1.2-2.85v-50.6c0-1.1.4-2.03,1.2-2.8.77-.8,1.7-1.2,2.8-1.2h12.05c1.1,0,2.05.4,2.85,1.2.77.77,1.15,1.7,1.15,2.8h5.6l7.7.65v-14.1h-.05c-1.1,0-2.03-.38-2.8-1.15-.8-.8-1.2-1.75-1.2-2.85V4c0-1.1.4-2.03,1.2-2.8C31.27.4,32.2,0,33.3,0l50.6.05c1.1,0,2.05.4,2.85,1.2.77.77,1.15,1.7,1.15,2.8M79.9,16.05h4V4.05l-50.6-.05v12.05h4.05v22.75c-3.7-.7-7.65-1.13-11.85-1.3h-9.45v-4H4v50.6h12v-4c4.33-.07,8,.5,11,1.7,6.4,2.47,9.83,7.75,10.3,15.85v3.85h-4v12.05h50.6v-12.05h-3.9v-5.75l-.1-2.9V16.05" fill="#527914" stroke-width="0"/><path d="M79.9,16.05h-46.6V4l50.6.05v12h-4M80,101.5h3.9v12.05h-50.6v-12.05h4l42.6.05v-.05h.1M16,80.1v4H4v-50.6h12.05v8l-.05,38.6" fill="#80be1f" stroke-width="0"/><path d="M79.9,92.85l.1,2.9v4l-.1-2.9v-4M16.05,37.5h9.45c4.2.17,8.15.6,11.85,1.3v4c-3.7-.7-7.65-1.13-11.85-1.3h-9.45v-4" fill="#b2f04f" stroke-width="0"/><path d="M37.35,16.05h42.55v80.8l.1,2.9v1.75h-.1v.05l-42.6-.05v-3.85c-.47-8.1-3.9-13.38-10.3-15.85-3-1.2-6.67-1.77-11-1.7l.05-38.6h9.45c4.2.17,8.15.6,11.85,1.3v-26.75" fill="#a1e03d" stroke-width="0"/></g></svg>