<?xml version="1.0" encoding="UTF-8"?><svg id="Calque_2" xmlns="http://www.w3.org/2000/svg" viewBox="0 0 88.05 87.9"><g id="Calque_1-2"><path d="M88.05,8l-.05,38.6v8c0,1.1-.38,2.05-1.15,2.85-.8.77-1.75,1.15-2.85,1.15h-12c-1.1,0-2.03-.38-2.8-1.15-.8-.8-1.2-1.73-1.2-2.8-6.03.43-10.02,3-11.95,7.7v.05c-.63,1.6-1.07,3.43-1.3,5.5,1.03.03,1.93.43,2.7,1.2s1.15,1.7,1.15,2.8v12c0,1.1-.38,2.05-1.15,2.85-.8.77-1.75,1.15-2.85,1.15H4c-1.1,0-2.03-.38-2.8-1.15-.8-.8-1.2-1.75-1.2-2.85v-12.05c0-1.1.4-2.03,1.2-2.8.77-.8,1.7-1.2,2.8-1.2v-5.6C5.5,24.22,26.23,4.77,66.2,3.9h1.8c.03-1.07.43-1.97,1.2-2.7.77-.8,1.7-1.2,2.8-1.2h12.05c1.1,0,2.05.4,2.85,1.2.77.77,1.15,1.7,1.15,2.8v4M72,50.6v4h12v-8l.05-38.6v-4h-12.05v3.9h-5.75C28.88,8.7,9.47,26.87,8,62.4v9.45h-4v12.05h50.6v-12h-4c-.07-4.33.5-8,1.7-11,2.47-6.4,7.75-9.83,15.85-10.3h3.85" fill="#527914" stroke-width="0"/><path d="M72,50.6V4h12.05v4l-.05,38.6v8h-12v-4M50.6,71.9h4v12H4v-12.05h4l42.6.05" fill="#80be1f" stroke-width="0"/><path d="M72,7.9v4h-5.75c-37.37.8-56.78,18.97-58.25,54.5v-4C9.47,26.87,28.88,8.7,66.25,7.9h5.75" fill="#b2f04f" stroke-width="0"/><path d="M72,11.9v38.7h-3.85c-8.1.47-13.38,3.9-15.85,10.3-1.2,3-1.77,6.67-1.7,11l-42.6-.05v-5.45C9.47,30.87,28.88,12.7,66.25,11.9h5.75" fill="#a1e03d" stroke-width="0"/></g></svg>