<?xml version="1.0" encoding="UTF-8"?><svg id="Calque_2" xmlns="http://www.w3.org/2000/svg" viewBox="0 0 117.55 117.55"><g id="Calque_1-2"><path d="M88.05,16.05c0,1.1-.38,2.05-1.15,2.85-.8.77-1.75,1.15-2.85,1.15v13.45h13.45v-.05c0-1.1.4-2.03,1.2-2.8.77-.8,1.7-1.2,2.8-1.2h12.05c1.1,0,2.05.4,2.85,1.2s1.15,1.7,1.15,2.8l-.05,50.6c0,1.1-.38,2.05-1.15,2.85-.8.77-1.75,1.15-2.85,1.15h-12c-1.1,0-2.03-.38-2.8-1.15-.8-.8-1.2-1.75-1.2-2.85h-13.45v13.5c1.1,0,2.05.4,2.85,1.2.77.77,1.15,1.7,1.15,2.8v12c0,1.1-.38,2.05-1.15,2.85-.8.77-1.75,1.15-2.85,1.15h-50.6c-1.1,0-2.03-.38-2.8-1.15s-1.2-1.75-1.2-2.85v-12.05c0-1.1.4-2.03,1.2-2.8.77-.8,1.7-1.2,2.8-1.2h.05v-13.45h-13.5c0,1.1-.38,2.05-1.15,2.85-.8.77-1.75,1.15-2.85,1.15H4c-1.1,0-2.03-.38-2.8-1.15-.8-.8-1.2-1.75-1.2-2.85v-50.6c0-1.1.4-2.03,1.2-2.8.77-.8,1.7-1.2,2.8-1.2h12.05c1.1,0,2.05.4,2.85,1.2s1.15,1.7,1.15,2.8v.05h13.45v-13.45h-.05c-1.1,0-2.03-.38-2.8-1.15s-1.2-1.75-1.2-2.85V4c0-1.1.4-2.03,1.2-2.8.77-.8,1.7-1.2,2.8-1.2l50.6.05c1.1,0,2.05.4,2.85,1.2.77.77,1.15,1.7,1.15,2.8v12M80.05,16.05h4V4.05l-50.6-.05v12.05h4.05v21.45h-21.45v-4.05H4v50.6h12v-4h21.5v21.45h-4.05v12.05h50.6v-12h-4v-21.5h21.45v4h12l.05-50.6h-12.05v4.05h-21.45v-21.45" fill="#527914" stroke-width="0"/><path d="M80.05,16.05h-46.6V4l50.6.05v12h-4M101.5,37.5v-4.05h12.05l-.05,50.6h-12v-46.55M80.05,101.55h4v12h-50.6v-12.05h4.05l42.55.05M16,80.05v4H4v-50.6h12.05v8.05l-.05,38.55" fill="#80be1f" stroke-width="0"/><path d="M80.05,37.5h21.45v4h-21.45v-4M16.05,37.5h21.45v4h-21.45v-4" fill="#b2f04f" stroke-width="0"/><path d="M80.05,16.05v25.45h21.45v38.55h-21.45v21.5l-42.55-.05v-21.45h-21.5l.05-38.55h21.45v-25.45h42.55" fill="#a1e03d" stroke-width="0"/></g></svg>