<?xml version="1.0" encoding="UTF-8"?><svg id="Calque_2" xmlns="http://www.w3.org/2000/svg" viewBox="0 0 117.55 88.05"><g id="Calque_1-2"><path d="M26.6,4.05h70.9v-.05c0-1.1.4-2.03,1.2-2.8.77-.8,1.7-1.2,2.8-1.2h12.05c1.1,0,2.05.4,2.85,1.2.77.77,1.15,1.7,1.15,2.8l-.05,50.6c0,1.1-.38,2.05-1.15,2.85-.8.77-1.75,1.15-2.85,1.15h-12c-1.1,0-2.03-.38-2.8-1.15-.8-.8-1.2-1.75-1.2-2.85h-14.35c.47,3.63.75,7.48.85,11.55v1.85c1.07.03,1.98.43,2.75,1.2s1.15,1.7,1.15,2.8v12.05c0,1.1-.38,2.05-1.15,2.85-.8.77-1.75,1.15-2.85,1.15h-4l-38.6-.05h-8c-1.1,0-2.03-.38-2.8-1.15-.8-.8-1.2-1.75-1.2-2.85v-12c0-1.1.4-2.03,1.2-2.8.77-.8,1.7-1.2,2.8-1.2-.47-6.03-3.05-10.02-7.75-11.95-1.63-.63-3.48-1.07-5.55-1.3-.03,1.03-.42,1.93-1.15,2.7-.8.77-1.75,1.15-2.85,1.15H4c-1.1,0-2.03-.38-2.8-1.15s-1.2-1.75-1.2-2.85V4l.05-.65c.13-.83.52-1.55,1.15-2.15.77-.8,1.7-1.2,2.8-1.2h12.05c1.1,0,2.05.4,2.85,1.2.77.77,1.15,1.7,1.15,2.8h5.45l1.1.05M101.5,8.05H26.6l-1.1-.05h-9.45v-4H4v50.6h12v-4h1.7c3.6.1,6.7.67,9.3,1.7,6.4,2.47,9.83,7.75,10.3,15.85v3.85h-4v12h8l38.6.05h4v-12.05h-3.9v-5.75c-.13-5.63-.65-10.85-1.55-15.65h23.05v4h12l.05-50.6h-12.05v4.05" fill="#527914" stroke-width="0"/><path d="M101.5,8.05v4H16.05v-4.05h9.45l1.1.05h74.9M78.45,50.6c.9,4.8,1.42,10.02,1.55,15.65v4c-.17-7.23-.97-13.78-2.4-19.65h.85" fill="#b2f04f" stroke-width="0"/><path d="M16.05,8v4.05l-.05,38.55v4H4V4h12.05v4M101.5,12.05V4h12.05l-.05,50.6h-12V12.05M80,72h3.9v12.05h-4l-38.6-.05h-8v-12h46.7" fill="#80be1f" stroke-width="0"/><path d="M80,72h-42.7v-3.85c-.47-8.1-3.9-13.38-10.3-15.85-2.6-1.03-5.7-1.6-9.3-1.7h-1.7l.05-38.55h85.45v38.55h-23.9c1.43,5.87,2.23,12.42,2.4,19.65v1.75" fill="#a1e03d" stroke-width="0"/></g></svg>