<?xml version="1.0" encoding="UTF-8"?><svg id="Calque_2" xmlns="http://www.w3.org/2000/svg" viewBox="0 0 117.55 58.6"><g id="Calque_1-2"><path d="M16.05,8.05v-4.05H4v50.6h12v-4h85.5v4h12l.05-50.6h-12.05v4.05H16.05M16.05,0c1.1,0,2.05.4,2.85,1.2.77.77,1.15,1.7,1.15,2.8v.05h77.45v-.05c0-1.1.4-2.03,1.2-2.8.77-.8,1.7-1.2,2.8-1.2h12.05c1.1,0,2.05.4,2.85,1.2.77.77,1.15,1.7,1.15,2.8l-.05,50.6c0,1.1-.38,2.05-1.15,2.85-.8.77-1.75,1.15-2.85,1.15h-12c-1.1,0-2.03-.38-2.8-1.15s-1.2-1.75-1.2-2.85H20c0,1.1-.38,2.05-1.15,2.85-.8.77-1.75,1.15-2.85,1.15H4c-1.1,0-2.03-.38-2.8-1.15s-1.2-1.75-1.2-2.85V4C0,2.9.4,1.97,1.2,1.2c.77-.8,1.7-1.2,2.8-1.2h12.05" fill="#527914" stroke-width="0"/><path d="M16,50.6v4H4V4h12.05v8.05l-.05,38.55M101.5,8.05v-4.05h12.05l-.05,50.6h-12V8.05" fill="#80be1f" stroke-width="0"/><path d="M101.5,8.05v4H16.05v-4h85.45" fill="#b2f04f" stroke-width="0"/><path d="M16,50.6l.05-38.55h85.45v38.55H16" fill="#a1e03d" stroke-width="0"/></g></svg>