<?xml version="1.0" encoding="UTF-8"?><svg id="Calque_2" xmlns="http://www.w3.org/2000/svg" viewBox="0 0 88.05 117.55"><g id="Calque_1-2"><path d="M4,0l50.6.05c1.1,0,2.05.4,2.85,1.2.77.77,1.15,1.7,1.15,2.8v12c0,1.1-.38,2.05-1.15,2.85-.8.77-1.75,1.15-2.85,1.15v14.4l11.55-.9h1.85c.03-1.07.43-1.97,1.2-2.7.77-.8,1.7-1.2,2.8-1.2h12.05c1.1,0,2.05.4,2.85,1.2.77.77,1.15,1.7,1.15,2.8v4l-.05,38.6v8c0,1.1-.38,2.05-1.15,2.85-.8.77-1.75,1.15-2.85,1.15h-12c-1.1,0-2.03-.38-2.8-1.15-.8-.8-1.2-1.73-1.2-2.8-6.03.43-10.02,3-11.95,7.7v.05c-.63,1.6-1.07,3.43-1.3,5.5,1.03.03,1.93.43,2.7,1.2.77.77,1.15,1.7,1.15,2.8v12c0,1.1-.38,2.05-1.15,2.85-.8.77-1.75,1.15-2.85,1.15H4c-1.1,0-2.03-.38-2.8-1.15-.8-.8-1.2-1.75-1.2-2.85v-12.05c0-1.1.4-2.03,1.2-2.8.77-.8,1.7-1.2,2.8-1.2v-5.45l.05-1.15V20.05h-.05c-1.1,0-2.03-.38-2.8-1.15-.8-.8-1.2-1.75-1.2-2.85V4C0,2.9.4,1.97,1.2,1.2,1.97.4,2.9,0,4,0M50.6,16.05h4V4.05l-50.6-.05v12.05h4.05v74.95l-.05,1.05v9.45h-4v12.05h50.6v-12h-4v-1.7c.1-3.6.67-6.7,1.7-9.3,2.47-6.4,7.75-9.83,15.85-10.3h3.85v4h12v-8l.05-38.6v-4h-12.05v3.9h-5.75c-5.63.13-10.85.65-15.65,1.55v-23.05" fill="#527914" stroke-width="0"/><path d="M50.6,16.05H4V4l50.6.05v12h-4M72,37.55v-3.9h12.05v4l-.05,38.6v8h-12v-46.7M50.6,101.55h4v12H4v-12.05h4l42.6.05" fill="#80be1f" stroke-width="0"/><path d="M50.6,39.1c4.8-.9,10.02-1.42,15.65-1.55h5.75v4h-5.75c-5.63.13-10.85.65-15.65,1.55v-4M8,95.7v-3.65l.05-1.05v4l-.05.7" fill="#b2f04f" stroke-width="0"/><path d="M8,95.7l.05-.7V16.05h42.55v27.05c4.8-.9,10.02-1.42,15.65-1.55h5.75v38.7h-3.85c-8.1.47-13.38,3.9-15.85,10.3-1.03,2.6-1.6,5.7-1.7,9.3v1.7l-42.6-.05v-5.8" fill="#a1e03d" stroke-width="0"/></g></svg>