<?xml version="1.0" encoding="UTF-8"?><svg id="Calque_2" xmlns="http://www.w3.org/2000/svg" viewBox="0 0 58.6 117.55"><g id="Calque_1-2"><path d="M0,4C0,2.9.4,1.97,1.2,1.2c.77-.8,1.7-1.2,2.8-1.2l50.6.05c1.1,0,2.05.4,2.85,1.2.77.77,1.15,1.7,1.15,2.8v12c0,1.1-.38,2.05-1.15,2.85-.8.77-1.75,1.15-2.85,1.15v77.5c1.1,0,2.05.4,2.85,1.2.77.77,1.15,1.7,1.15,2.8v12c0,1.1-.38,2.05-1.15,2.85-.8.77-1.75,1.15-2.85,1.15H4c-1.1,0-2.03-.38-2.8-1.15-.8-.8-1.2-1.75-1.2-2.85v-12.05c0-1.1.4-2.03,1.2-2.8.77-.8,1.7-1.2,2.8-1.2h.05V20.05h-.05c-1.1,0-2.03-.38-2.8-1.15-.8-.8-1.2-1.75-1.2-2.85V4M50.6,16.05h4V4.05l-50.6-.05v12.05h4.05v85.45h-4.05v12.05h50.6v-12h-4V16.05" fill="#527914" stroke-width="0"/><path d="M50.6,16.05H4V4l50.6.05v12h-4M50.6,101.55h4v12H4v-12.05h4.05l42.55.05" fill="#80be1f" stroke-width="0"/><path d="M50.6,101.55l-42.55-.05V16.05h42.55v85.5" fill="#a1e03d" stroke-width="0"/></g></svg>