<?xml version="1.0" encoding="UTF-8"?><svg id="Calque_2" xmlns="http://www.w3.org/2000/svg" viewBox="0 0 117.55 87.9"><g id="Calque_1-2"><path d="M80.05,16v4c-.07,4.33.5,8,1.7,11,1,2.6,2.48,4.72,4.45,6.35,2.8,2.37,6.6,3.68,11.4,3.95h3.85v38.7h-5.75l-2.9-.1H16l.05-38.55h23.55l-.85-4c-.7-3.7-1.13-7.65-1.3-11.85v-9.45l42.6-.05" fill="#a1e03d" stroke-width="0"/><path d="M80.05,17.7c.1,3.6.67,6.7,1.7,9.3,2.47,6.4,7.75,9.83,15.85,10.3h3.85v4h-3.85c-4.8-.27-8.6-1.58-11.4-3.95-1.97-1.63-3.45-3.75-4.45-6.35-1.2-3-1.77-6.67-1.7-11v-2.3M16.05,37.35h22.7l.85,4h-23.55v-4" fill="#b2f04f" stroke-width="0"/><path d="M16.05,37.35v-4.05H4v50.6h12v-4h76.8l2.9.1h5.75v3.9h12.05l.05-50.6h-12.1v4h-3.85c-8.1-.47-13.38-3.9-15.85-10.3-1.03-2.6-1.6-5.7-1.7-9.3v-1.7h4V4h-50.6v12.05h4v9.45c.17,4.2.6,8.15,1.3,11.85h-22.7M30.65,1.2c.77-.8,1.7-1.2,2.8-1.2h50.6c1.1,0,2.05.4,2.85,1.2s1.15,1.7,1.15,2.8v12c0,1.1-.38,2.05-1.15,2.85-.77.73-1.67,1.12-2.7,1.15.23,2.07.67,3.92,1.3,5.55,1.93,4.7,5.92,7.28,11.95,7.75,0-1.1.4-2.03,1.2-2.8.77-.8,1.7-1.2,2.8-1.2h12.1c1.1,0,2.05.4,2.85,1.2s1.15,1.7,1.15,2.8l-.05,50.6c0,1.1-.38,2.05-1.15,2.85-.8.77-1.75,1.15-2.85,1.15h-12.05c-1.1,0-2.03-.38-2.8-1.15-.77-.77-1.17-1.68-1.2-2.75h-1.85l-2.8-.1H20c0,1.1-.38,2.05-1.15,2.85-.8.77-1.75,1.15-2.85,1.15H4c-1.1,0-2.03-.38-2.8-1.15s-1.2-1.75-1.2-2.85v-50.6c0-1.1.4-2.03,1.2-2.8.77-.8,1.7-1.2,2.8-1.2h12.05c1.1,0,2.05.4,2.85,1.2s1.15,1.7,1.15,2.8v.05h14.05c-.33-2.47-.55-5.03-.65-7.7v-5.6c-1.1,0-2.03-.38-2.8-1.15s-1.2-1.75-1.2-2.85V4c0-1.1.4-2.03,1.2-2.8" fill="#527914" stroke-width="0"/><path d="M37.45,16.05h-4V4h50.6v12h-4l-42.6.05M101.45,37.3v-4h12.1l-.05,50.6h-12.05v-46.6M16,79.9v4H4v-50.6h12.05v8.05l-.05,38.55" fill="#80be1f" stroke-width="0"/></g></svg>