<?xml version="1.0" encoding="UTF-8"?><svg id="Calque_2" xmlns="http://www.w3.org/2000/svg" viewBox="0 0 87.9 88.05"><g id="Calque_1-2"><path d="M37.3,16.05v3.85c-.47,8.1-3.9,13.38-10.3,15.85-3,1.2-6.67,1.77-11,1.7v-4H4v50.6h12.05v-4h9.45c35.53-1.47,53.7-20.88,54.5-58.25v-5.75h3.9V4h-4l-38.6.05h-8v12h4M30.5,18.9c-.8-.8-1.2-1.75-1.2-2.85V4.05c0-1.1.4-2.03,1.2-2.8.77-.8,1.7-1.2,2.8-1.2h8l38.6-.05h4c1.1,0,2.05.4,2.85,1.2.77.77,1.15,1.7,1.15,2.8v12.05c0,1.1-.38,2.05-1.15,2.85-.77.73-1.68,1.12-2.75,1.15v1.85c-.87,39.93-20.3,60.65-58.3,62.15h-5.65c0,1.1-.38,2.05-1.15,2.85-.8.77-1.75,1.15-2.85,1.15H4c-1.1,0-2.03-.38-2.8-1.15-.8-.8-1.2-1.75-1.2-2.85v-50.6c0-1.1.4-2.03,1.2-2.8.77-.8,1.7-1.2,2.8-1.2h12c1.1,0,2.05.4,2.85,1.2.73.73,1.12,1.62,1.15,2.65,2.07-.23,3.92-.65,5.55-1.25,4.7-1.97,7.28-5.97,7.75-12-1.1,0-2.03-.38-2.8-1.15" fill="#527914" stroke-width="0"/><path d="M16,37.45c4.33.07,8-.5,11-1.7,6.4-2.47,9.83-7.75,10.3-15.85v4c-.47,8.1-3.9,13.38-10.3,15.85-3,1.2-6.67,1.77-11,1.7v-4" fill="#b2f04f" stroke-width="0"/><path d="M37.3,19.9v-3.85h42.7v5.75c-.8,37.37-18.97,56.78-54.5,58.25h-9.45l-.05-38.6c4.33.07,8-.5,11-1.7,6.4-2.47,9.83-7.75,10.3-15.85v-4" fill="#a1e03d" stroke-width="0"/><path d="M37.3,16.05h-4V4.05h8l38.6-.05h4v12.05h-46.6M16.05,80.05v4H4v-50.6h12v8l.05,38.6" fill="#80be1f" stroke-width="0"/></g></svg>