<?xml version="1.0" encoding="UTF-8"?><svg id="Calque_2" xmlns="http://www.w3.org/2000/svg" viewBox="0 0 87.9 88.05"><g id="Calque_1-2"><path d="M16,50.6c4.33-.07,8,.5,11,1.7,6.4,2.47,9.83,7.75,10.3,15.85v3.85h-4v12h8l38.6.05h4v-12.05h-3.9v-5.75c-.8-37.37-18.97-56.78-54.5-58.25h-9.45v-4H4v50.6h12v-4M25.7,4c38,1.5,57.43,22.23,58.3,62.2v1.8c1.07.03,1.98.43,2.75,1.2.77.77,1.15,1.7,1.15,2.8v12.05c0,1.1-.38,2.05-1.15,2.85-.8.77-1.75,1.15-2.85,1.15h-4l-38.6-.05h-8c-1.1,0-2.03-.38-2.8-1.15-.8-.8-1.2-1.75-1.2-2.85v-12c0-1.1.4-2.03,1.2-2.8.77-.8,1.7-1.2,2.8-1.2-.47-6.03-3.05-10.02-7.75-11.95-1.63-.63-3.48-1.07-5.55-1.3-.03,1.03-.42,1.93-1.15,2.7-.8.77-1.75,1.15-2.85,1.15H4c-1.1,0-2.03-.38-2.8-1.15-.8-.8-1.2-1.75-1.2-2.85V4C0,2.9.4,1.97,1.2,1.2,1.97.4,2.9,0,4,0h12.05c1.1,0,2.05.4,2.85,1.2.77.77,1.15,1.7,1.15,2.8h5.65" fill="#527914" stroke-width="0"/><path d="M16,50.6v4H4V4h12.05v8l-.05,38.6M80,72h3.9v12.05h-4l-38.6-.05h-8v-12h46.7" fill="#80be1f" stroke-width="0"/><path d="M16.05,12v-4h9.45c35.53,1.47,53.7,20.88,54.5,58.25v4c-.8-37.37-18.97-56.78-54.5-58.25h-9.45" fill="#b2f04f" stroke-width="0"/><path d="M16,50.6l.05-38.6h9.45c35.53,1.47,53.7,20.88,54.5,58.25v1.75h-42.7v-3.85c-.47-8.1-3.9-13.38-10.3-15.85-3-1.2-6.67-1.77-11-1.7" fill="#a1e03d" stroke-width="0"/></g></svg>