<?xml version="1.0" encoding="UTF-8"?><svg id="Calque_2" xmlns="http://www.w3.org/2000/svg" viewBox="0 0 88.05 87.9"><g id="Calque_1-2"><path d="M50.6,17.7v-1.7h4V4H4v12.05h4v9.45c1.47,35.53,20.88,53.7,58.25,54.5h5.75v3.9h12.05v-4l-.05-38.6v-8h-12v4h-3.85c-8.1-.47-13.38-3.9-15.85-10.3-1.03-2.6-1.6-5.7-1.7-9.3M57.45,1.2c.77.77,1.15,1.7,1.15,2.8v12c0,1.1-.38,2.05-1.15,2.85-.77.73-1.67,1.12-2.7,1.15.23,2.07.67,3.92,1.3,5.55,1.93,4.7,5.92,7.28,11.95,7.75,0-1.1.4-2.03,1.2-2.8.77-.8,1.7-1.2,2.8-1.2h12c1.1,0,2.05.4,2.85,1.2.77.77,1.15,1.7,1.15,2.8v8l.05,38.6v4c0,1.1-.38,2.05-1.15,2.85-.8.77-1.75,1.15-2.85,1.15h-12.05c-1.1,0-2.03-.38-2.8-1.15s-1.17-1.68-1.2-2.75h-1.8c-39.97-.87-60.7-20.3-62.2-58.3v-5.65c-1.1,0-2.03-.38-2.8-1.15-.8-.8-1.2-1.75-1.2-2.85V4C0,2.9.4,1.97,1.2,1.2c.77-.8,1.7-1.2,2.8-1.2h50.6c1.1,0,2.05.4,2.85,1.2" fill="#527914" stroke-width="0"/><path d="M8,16.05h-4V4h50.6v12h-4l-42.6.05M72,37.3v-4h12v8l.05,38.6v4h-12.05v-46.6" fill="#80be1f" stroke-width="0"/><path d="M50.6,16v4c-.07,4.33.5,8,1.7,11,2.47,6.4,7.75,9.83,15.85,10.3h3.85v38.7h-5.75c-37.37-.8-56.78-18.97-58.25-54.5v-9.45l42.6-.05" fill="#a1e03d" stroke-width="0"/><path d="M50.6,17.7c.1,3.6.67,6.7,1.7,9.3,2.47,6.4,7.75,9.83,15.85,10.3h3.85v4h-3.85c-8.1-.47-13.38-3.9-15.85-10.3-1.2-3-1.77-6.67-1.7-11v-2.3" fill="#b2f04f" stroke-width="0"/></g></svg>